<!DOCTYPE svg PUBLIC "-//W3C//DTD SVG 1.1//EN" "http://www.w3.org/Graphics/SVG/1.1/DTD/svg11.dtd">
<!-- Uploaded to: SVG Repo, www.svgrepo.com, Transformed by: SVG Repo Mixer Tools -->
<svg width="64px" height="64px" viewBox="-38.23 0 363.855 363.855" xmlns="http://www.w3.org/2000/svg" fill="#936c10" stroke="#936c10">
<g id="SVGRepo_bgCarrier" stroke-width="0"/>
<g id="SVGRepo_tracerCarrier" stroke-linecap="round" stroke-linejoin="round"/>
<g id="SVGRepo_iconCarrier">
<defs>
<style>.a{fill:#B79953;}.b{fill:#ffffff;}.c{fill:#B79953;}.d{fill:#767442;}</style>
</defs>
<path class="a" d="M239.005,329c8.871-1.667,13.211-.933,21.868-7.279,7.336-5.378,17.331-10.038,21.7-18.415a24.825,24.825,0,0,0,2.36-13.177,129.959,129.959,0,0,0-6.221-32.687c-3.763-11.155-20.577-49.878-23.321-58.041-2.988-8.885-6.3-18.07-13-24.626-3.694-3.613-8.212-6.214-12.815-8.607-3.622-2.137-23.116-12.48-24.713-13.338,8.29-5.6,15.053-11.526,20.925-22.532a34.724,34.724,0,0,0,2.861-6.889c4.07-14.408,1.679-29.753-.738-44.529-1.354-8.281-11.8-40.761-33.4-55.872-10.211-7.145-42.153-19.8-53.787-20.638-11.642.833-43.589,13.492-53.8,20.638-21.6,15.111-32.042,47.591-33.4,55.872C51.11,93.655,48.72,109,52.79,123.408a34.78,34.78,0,0,0,2.86,6.889c5.878,11.016,12.649,16.945,20.916,22.567-2.085,1.022-15.179,9.565-18.784,11.692-4.6,2.393-9.121,4.994-12.815,8.608-6.7,6.555-10.012,15.74-13,24.625-2.744,8.163-19.558,46.886-23.321,58.041a129.923,129.923,0,0,0-6.221,32.687,24.825,24.825,0,0,0,2.36,13.177c4.365,8.377,14.36,13.037,21.7,18.416a54.172,54.172,0,0,0,21.8,7.717"/>
<path class="b" d="M88.743,121.908c-3.323-7.186-4.95-16.278-4.085-27.79,9.666-9.575,32.56-22.55,54.927-22.55s45.26,12.975,54.926,22.55c2.336,26.018-13.071,46.667-28.508,50.54a95.426,95.426,0,0,1-19.971,3.09c-7.118.3-19.129-.581-19.129-.581C111.637,144.337,96.069,137.753,88.743,121.908Z"/>
<path class="c" d="M228.452,203.106c-3.753,15.29-7.728,30.576-10.689,46.045-.517,2.7-1,5.413-1.3,8.146-.289,2.583-.221,5.2-.251,7.8-.068,5.971-.06,11.942-.029,17.914.041,8.075.1,16.151.1,24.226,0,3.089,4.8,3.094,4.8,0,0-13.158-.2-26.317-.094-39.474.023-2.915-.018-5.848.129-8.758.023-.454.064-.907.11-1.358.055-.535.113-1,.148-1.251.188-1.343.416-2.681.656-4.016,1.316-7.3,3-14.532,4.7-21.75,2.058-8.764,4.211-17.5,6.357-26.248.736-3-3.891-4.279-4.628-1.276Z"/>
<path class="c" d="M238.182,275.72a75.482,75.482,0,0,1,6.672,4.061c1.043.712,2.065,1.454,3.072,2.216.1.075.279.213.078.057l.373.292q.418.328.833.665.781.633,1.547,1.287a2.4,2.4,0,0,0,3.394-3.394,78.26,78.26,0,0,0-13.547-9.329,2.4,2.4,0,0,0-2.422,4.145Z"/>
<path class="c" d="M53.69,204.382c3.723,15.17,7.654,30.334,10.618,45.675.285,1.477.557,2.957.8,4.442.2,1.224.318,2,.427,3.033.278,2.623.2,5.29.229,7.924.065,5.911.055,11.822.025,17.733-.042,8.016-.1,16.032-.1,24.048,0,3.089,4.8,3.094,4.8,0,0-13.275.2-26.551.091-39.826-.024-2.859.035-5.743-.137-8.6a64.439,64.439,0,0,0-1.014-7.37c-1.306-7.34-3-14.613-4.7-21.869-2.073-8.838-4.245-17.653-6.408-26.469-.736-3-5.366-1.728-4.629,1.276Z"/>
<path class="c" d="M46.166,271.575A78.3,78.3,0,0,0,32.619,280.9a2.412,2.412,0,0,0,0,3.394,2.462,2.462,0,0,0,3.4,0c.48-.409.964-.815,1.454-1.213q.414-.336.832-.666l.373-.292c.315-.244-.24.183.077-.058q1.555-1.182,3.167-2.288a75.32,75.32,0,0,1,6.671-4.061,2.421,2.421,0,0,0,.861-3.284,2.451,2.451,0,0,0-3.283-.861Z"/>
<path class="c" d="M143.636,222.965c-39.487.285-78.783.515-92.735.562a4.01,4.01,0,0,0-4,4.029c.081,22.669,1.174,101.122,2.007,129.958a4.017,4.017,0,0,0,4.086,3.9c12.609-.195,51.663-.075,90.641.058,38.977-.133,78.031-.253,90.641-.058a4.016,4.016,0,0,0,4.085-3.9c.833-28.836,1.927-107.289,2.007-129.958a4.01,4.01,0,0,0-4-4.029C222.418,223.48,183.122,223.25,143.636,222.965Z"/>
<path class="a" d="M65.948,349.623c19.134-.119,38.27-.017,57.4.042,23.359.072,46.716-.038,70.075-.072,9.3-.014,18.6-.028,27.9.03,3.09.019,3.093-4.781,0-4.8-19.134-.119-38.27-.017-57.4.042-23.358.072-46.716-.038-70.074-.072-9.3-.014-18.6-.028-27.9.03-3.088.019-3.094,4.819,0,4.8Z"/>
<path class="c" d="M48.28,325.427q-.249-.03-.5-.063c.346.046-.085-.013-.128-.019-.354-.052-.708-.106-1.061-.165q-1.279-.212-2.547-.489a50.211,50.211,0,0,1-5.25-1.459,48.165,48.165,0,0,1-12.236-6.007c-6.394-4.484-14.185-8.193-18.613-14.9a21.426,21.426,0,0,1-3.171-12.938,125.184,125.184,0,0,1,7.907-37.637c4.524-11.834,9.528-23.486,14.369-35.191,2.047-4.95,4.11-9.895,6.037-14.893,2.455-6.367,4.283-12.939,7.656-18.921a33.937,33.937,0,0,1,8.5-10.156c3.3-2.6,7.082-4.325,10.644-6.5,5.171-3.161,10.219-6.52,15.386-9.688.77-.473,1.541-.95,2.336-1.379,2.719-1.468.3-5.614-2.422-4.145-5.149,2.78-9.993,6.215-14.94,9.332-2.871,1.809-5.871,3.35-8.778,5.095a40.177,40.177,0,0,0-11.155,9.484c-5.412,6.91-8.05,15.139-10.98,23.281-1.616,4.491-3.482,8.9-5.3,13.31-5.061,12.3-10.3,24.54-15.144,36.933a126.586,126.586,0,0,0-6.167,20.223A144.745,144.745,0,0,0,.331,284.746c-.481,5.183-.686,10.43,1.169,15.4,3.162,8.462,10.883,13.509,18.132,18.223,1.757,1.143,3.516,2.287,5.218,3.512a39.468,39.468,0,0,0,6.675,3.589,55.6,55.6,0,0,0,11.83,3.979c1.629.337,3.274.579,4.925.783a2.413,2.413,0,0,0,2.4-2.4,2.46,2.46,0,0,0-2.4-2.4Z"/>
<path class="c" d="M239.643,331.313c3.955-.733,8.03-1.018,11.908-2.123,4.548-1.3,8.261-3.856,12.1-6.512,7.237-5,15.691-9.282,20.376-17.07a26.663,26.663,0,0,0,3.3-15.48,145.49,145.49,0,0,0-2.111-16.99,124.183,124.183,0,0,0-6.5-22.574c-5.016-12.909-10.492-25.637-15.753-38.447-1.794-4.371-3.675-8.736-5.209-13.207-3.167-9.231-6.523-18.844-13.666-25.833-5.408-5.29-12.469-8.595-19.06-12.17-5.552-3.012-11.127-5.981-16.7-8.95l-2.034-1.083c-2.724-1.455-5.151,2.687-2.422,4.144q6.993,3.735,13.986,7.471c2.669,1.434,5.338,2.87,7.992,4.333,2.857,1.576,5.772,3.071,8.539,4.8a34.023,34.023,0,0,1,10.313,9.642,58.889,58.889,0,0,1,6.278,12.772c1.86,5.018,3.573,10.049,5.584,15.011,5.112,12.617,10.47,25.133,15.538,37.768a165.2,165.2,0,0,1,5.96,16.642,125.531,125.531,0,0,1,3.4,16.284c.38,2.664.665,5.344.89,8.026a36.993,36.993,0,0,1,.056,8.052,20.021,20.021,0,0,1-5.8,11.506,59.039,59.039,0,0,1-10.069,7.7c-1.826,1.191-3.664,2.366-5.456,3.61a65.8,65.8,0,0,1-5.936,3.921,31.075,31.075,0,0,1-10.516,3.133c-2.092.314-4.185.611-6.265,1a2.421,2.421,0,0,0-1.676,2.952,2.451,2.451,0,0,0,2.952,1.676Z"/>
<path class="c" d="M89.608,163.489a61.672,61.672,0,0,0,21.376,8.532,2.463,2.463,0,0,0,2.952-1.676,2.421,2.421,0,0,0-1.676-2.952,57.982,57.982,0,0,1-20.229-8.049c-2.613-1.666-5.023,2.487-2.423,4.145Z"/>
<path class="c" d="M77.59,150.664a60.672,60.672,0,0,1-15.778-14.891,47.184,47.184,0,0,1-6.248-11.534,51.285,51.285,0,0,1-2.446-13.64c-.553-9.647.812-19.269,2.347-28.768a75.023,75.023,0,0,1,2.922-11.794c3.866-11.626,9.473-23.111,17.194-32.8a58.429,58.429,0,0,1,13.972-13.1,117.269,117.269,0,0,1,14.562-7.562q8.93-4.053,18.2-7.3a90.48,90.48,0,0,1,15.887-4.33c.368-.056-.4.049-.042,0,.1-.012.193-.026.29-.036.249-.027.5-.055.746-.076.453-.039.908-.066,1.363-.071a21.794,21.794,0,0,1,2.854.188c.28.034-.089-.013-.12-.017.142.02.284.04.425.062.293.046.585.093.877.144.621.109,1.239.231,1.856.362,1.276.272,2.543.586,3.8.924a159.536,159.536,0,0,1,18.168,6.26c5.833,2.351,11.587,4.937,17.16,7.853a59.286,59.286,0,0,1,13.5,9.287c9.538,8.988,16.433,20.984,21.269,32.908a104.013,104.013,0,0,1,4.519,13.444c.512,2.019.843,4.053,1.173,6.109.765,4.752,1.478,9.512,1.922,14.306.858,9.261.944,19.182-2.241,28.053a48.216,48.216,0,0,1-6.217,11.283,51.972,51.972,0,0,1-7.467,8.373,75.344,75.344,0,0,1-8.2,6.355c-2.533,1.734-.135,5.9,2.423,4.144a67.552,67.552,0,0,0,17.04-15.967,54.98,54.98,0,0,0,6.738-12.089,51.225,51.225,0,0,0,2.942-14.3c.835-9.968-.5-19.975-2.055-29.807A85.038,85.038,0,0,0,227.824,69.2a114.154,114.154,0,0,0-18.049-34.695A63.552,63.552,0,0,0,194.708,20.25a113.551,113.551,0,0,0-14.985-7.885c-6.372-2.913-12.876-5.569-19.5-7.859A82.284,82.284,0,0,0,143.314.145c-4.609-.553-9.248.57-13.668,1.791a171.032,171.032,0,0,0-18.61,6.491c-11.423,4.628-23.286,9.63-32.325,18.246C68.608,36.3,61.526,48.88,56.349,61.725a101.313,101.313,0,0,0-4.534,13.667c-.6,2.465-.955,4.979-1.349,7.484-.79,5.021-1.507,10.061-1.92,15.129a87.1,87.1,0,0,0-.058,14.907,49.986,49.986,0,0,0,3.064,14.248,57.433,57.433,0,0,0,14.71,20.78,85.452,85.452,0,0,0,8.905,6.868c2.556,1.75,4.96-2.408,2.423-4.144Z"/>
<path class="c" d="M190.756,159.344a57.99,57.99,0,0,1-20.229,8.049,2.423,2.423,0,0,0-1.677,2.952,2.451,2.451,0,0,0,2.953,1.676,61.668,61.668,0,0,0,21.375-8.532c2.6-1.656.193-5.812-2.422-4.145Z"/>
<path class="a" d="M130.172,283.91c.048-.224.119-.436.183-.655.087-.3-.218.429-.066.154.049-.088.09-.181.14-.27a4.279,4.279,0,0,1,.374-.579c.028.015-.405.454-.084.125.091-.093.175-.192.267-.284.071-.071.434-.484.526-.472.007,0-.5.338-.106.091.089-.056.174-.118.264-.174q.267-.168.551-.311a2.827,2.827,0,0,1,.284-.136c-.309.126-.379.157-.21.091.073-.028.146-.055.221-.08a6.485,6.485,0,0,1,.626-.181c.109-.026.218-.045.326-.07.417-.1-.073.023-.143.011a4.287,4.287,0,0,0,.665-.041c.138,0,.276,0,.414.012.421.027.1.083-.066-.02a3.184,3.184,0,0,0,.635.151l.154.051q.3.114.013,0c-.231-.208-.031,0,.078.057s.183.119.277.171c.281.153-.326-.307-.116-.093.083.085.174.174.263.253.308.277-.2-.32-.051-.087.108.168.217.329.31.506.213.409-.092,0-.026-.095a2.754,2.754,0,0,0,.1.286c.061.194.1.391.147.589.048.227-.072.246-.023-.185a4.1,4.1,0,0,0,.022.455c0,.1-.007.2-.009.3,0,.292-.123.048.038-.188-.051.075-.05.587-.149.594.016,0,.213-.455.049-.12-.048.1-.094.2-.145.295a7.519,7.519,0,0,1-.417.709,1.335,1.335,0,0,1-.188.27c.163-.065.273-.328.073-.1-.162.187-.324.371-.5.545-.156.155-.325.293-.486.443-.237.219.366-.25.1-.073-.146.1-.286.2-.435.293-.2.125-.417.222-.622.342-.288.168.4-.135.086-.031-.14.045-.276.1-.418.143s-.595.065-.686.158c.052-.052.569-.025.114-.028-.171,0-.344,0-.514,0-.394.01.185-.056.155.032a3.118,3.118,0,0,1-.4-.085c-.1-.027-.2-.069-.31-.094q-.255-.09.2.094c-.074-.033-.146-.069-.217-.107-.095-.05-.188-.1-.279-.161-.386-.245.012-.085.035.042a2.309,2.309,0,0,0-.232-.22c-.36-.3.208.385-.042-.04-.127-.215-.43-.586-.44-.84,0,.045.189.508.029.057-.062-.176-.126-.35-.18-.529-.035-.119-.067-.239-.1-.359-.018-.08-.079-.593-.053-.227.029.4,0-.208,0-.234,0-.142.086-.728-.01-.161a2.458,2.458,0,0,0-1.676-2.952,2.428,2.428,0,0,0-2.952,1.676,8.625,8.625,0,0,0,.87,5.324A6.3,6.3,0,0,0,130.1,291.2c2.992,1.054,6.4-.349,8.447-2.606a8.74,8.74,0,0,0,2.2-3.87,7.663,7.663,0,0,0-.547-4.674,6.08,6.08,0,0,0-2.928-2.991,8.185,8.185,0,0,0-4.922-.555,8.486,8.486,0,0,0-6.812,6.133,2.4,2.4,0,1,0,4.628,1.276Z"/>
<path class="a" d="M162.727,282.634c-1.3-6.1-10.53-8.74-14.235-3.372a7.092,7.092,0,0,0-1.141,4.071,7.45,7.45,0,0,0,1.474,4.134,8.818,8.818,0,0,0,8.4,3.96,6.269,6.269,0,0,0,4.371-2.963,8.553,8.553,0,0,0,1.133-5.83,2.411,2.411,0,0,0-2.953-1.676,2.468,2.468,0,0,0-1.676,2.952c-.085-.5-.011-.162-.014-.042,0,.155-.013.324-.007.48.014.341.1-.419.016-.088-.03.119-.049.242-.079.362-.068.273-.164.532-.253.8-.04.119-.1.424.029-.057a2.339,2.339,0,0,1-.2.429c-.058.112-.119.223-.186.33l-.05.081q-.246.354.067-.078a2.165,2.165,0,0,1-.222.231c-.246.26.11-.041.116-.069-.02.105-.454.28-.55.332-.381.21.078-.063.129-.05a2.642,2.642,0,0,0-.465.141,1.844,1.844,0,0,0-.318.064c.064-.034.575-.034.156-.032-.145,0-.582.078-.69-.014.117.1.438.085.116.01-.115-.027-.229-.049-.343-.08-.143-.037-.283-.081-.422-.13-.5-.175,0-.006,0,.009s-.583-.307-.626-.333c-.127-.076-.25-.157-.372-.241-.072-.05-.353-.286-.093-.06.275.238-.26-.239-.318-.294a7.582,7.582,0,0,1-.564-.6c-.063-.073-.242-.365-.069-.078s0-.017-.054-.09c-.138-.2-.267-.415-.386-.631a5.679,5.679,0,0,0-.29-.591c.055.077.151.5.059.116-.032-.138-.046-.307-.091-.44.022.064.034.588.038.188,0-.1-.009-.2-.009-.3s.008-.2.011-.3c.008-.409-.018.126-.037.183.062-.188.075-.4.129-.594.028-.1.064-.192.091-.289.132-.475-.227.419-.008.019.1-.175.2-.342.3-.512.225-.364-.071.144-.1.136a2.621,2.621,0,0,0,.253-.264c.141-.134.27-.1.043-.053l-.12.094c.067-.048.135-.093.205-.134.092-.057.193-.1.284-.159q.243-.12-.2.075c.075-.03.151-.058.229-.082.208-.069.419-.107.631-.162.318-.083-.481.03-.151.018.138,0,.275-.021.413-.024.223,0,.443.01.665.023.371.023-.1-.056-.141-.023.053-.044.434.085.49.1a6.773,6.773,0,0,1,.7.207c.087.031.405.171.079.022-.366-.166.143.077.213.113a7,7,0,0,1,.614.361,1.92,1.92,0,0,1,.26.18q-.412-.327-.114-.083l.119.1c.2.174.373.362.552.553.128.136.14.3-.083-.125.068.13.18.255.258.381.054.087.1.175.153.265.04.075.25.48.073.125s.015.071.036.138c.044.146.078.293.11.441a2.416,2.416,0,0,0,2.952,1.676A2.457,2.457,0,0,0,162.727,282.634Z"/>
<path class="a" d="M165.973,268.1c-7.934-8.041-20.693-10.139-31.384-7.4A27.347,27.347,0,0,0,119.1,270.85a20.864,20.864,0,0,0-3.4,17.421c1.65,6.539,6.531,13.491,13.181,15.588l-1.762-2.315q.058,3.582.112,7.164c.018,1.2.01,2.4.928,3.3a5.25,5.25,0,0,0,3.231,1.2c2.36.243,4.81.1,7.179.108,5.328.016,10.661.055,15.988-.041,2.438-.044,5.33-.5,5.535-3.462.189-2.738.091-5.525.136-8.269l-1.762,2.315c6.707-2.115,11.629-9.172,13.228-15.782,1.768-7.309-.613-14.587-5.725-19.977-2.13-2.246-5.52,1.152-3.394,3.394a16.514,16.514,0,0,1,4.49,15.307,20.123,20.123,0,0,1-3.646,7.539,13.454,13.454,0,0,1-6.229,4.89,2.468,2.468,0,0,0-1.762,2.314q-.036,2.148-.068,4.3-.015.955-.029,1.912a10.5,10.5,0,0,1-.065,1.842l.617-1.059c.506-.473-.026-.127-.348-.089-.344.04-.7.025-1.046.031-.318.006-.636.009-.954.012-.914.01-1.828.015-2.742.02q-3.559.018-7.119.015t-7.119-.015q-1.326-.006-2.652-.019c-.326,0-.652-.006-.977-.012-.3,0-.6,0-.9-.023-.339-.026-1.07-.4-.561.08l.617,1.059a17.058,17.058,0,0,1-.094-3.754q-.033-2.148-.068-4.3a2.465,2.465,0,0,0-1.762-2.314c-4.642-1.464-8.1-6.647-9.5-11.079a16.141,16.141,0,0,1,1.922-13.922c5.213-8.02,15.182-10.24,24.149-9.715a24.677,24.677,0,0,1,15.847,6.98C164.752,273.7,168.146,270.3,165.973,268.1Z"/>
<path class="a" d="M146.305,304.4v5.42a2.476,2.476,0,0,0,.7,1.7,2.4,2.4,0,0,0,4.1-1.7V304.4a2.475,2.475,0,0,0-.7-1.7,2.4,2.4,0,0,0-4.1,1.7Z"/>
<path class="a" d="M136.258,304.4v5.42a2.477,2.477,0,0,0,.7,1.7,2.4,2.4,0,0,0,4.1-1.7V304.4a2.475,2.475,0,0,0-.7-1.7,2.4,2.4,0,0,0-4.1,1.7Z"/>
<path class="d" d="M84.658,94.118c9.666-9.575,32.56-22.55,54.927-22.55s45.26,12.975,54.926,22.55c.909,5.778-38.673-7.635-55.589-7.635C125.811,86.483,83.793,105.63,84.658,94.118Z"/>
<path class="c" d="M92.434,128.248a38.482,38.482,0,0,1-3.693-6.345,42.686,42.686,0,0,1-2.4-6.6l1.991-.5c12.915-3.243,32.382-9.834,43.588-17.028,2.68-1.72,5.619-3.627,8.776-3.206a12.378,12.378,0,0,1,5.287,2.534l1.046.672c11.206,7.194,30.673,13.785,43.588,17.028l1.839.462c-4.613,15.509-15.525,26.656-26.451,29.4a95.426,95.426,0,0,1-19.971,3.09c-7.118.3-19.129-.581-19.129-.581C113.856,144.748,100.589,139.588,92.434,128.248Z"/>
<path class="c" d="M88.968,117.113c6.642-1.673,13.211-3.654,19.681-5.9a150.962,150.962,0,0,0,20.2-8.423c3-1.558,5.737-3.633,8.774-5.09a5.932,5.932,0,0,1,4.907-.4,29.136,29.136,0,0,1,4.422,2.727,116.067,116.067,0,0,0,19.676,9.536,191.742,191.742,0,0,0,23.345,7.554c3,.756,4.274-3.872,1.276-4.628a192.367,192.367,0,0,1-20.854-6.593,119.627,119.627,0,0,1-20.011-9.387c-3.262-1.985-6.377-4.73-10.462-4.362-3.957.357-7.076,2.863-10.388,4.794a117.541,117.541,0,0,1-19.169,8.583,232.99,232.99,0,0,1-22.677,6.965c-2.994.754-1.725,5.385,1.276,4.628Z"/>
<path class="a" d="M137.992,102.626c-.156,12.767.042,25.535-.114,38.3-.037,3.09,4.763,3.092,4.8,0,.156-12.766-.042-25.534.114-38.3.037-3.09-4.763-3.092-4.8,0Z"/>
<path class="c" d="M90.813,120.692c-3.785-8.278-4.4-17.61-3.755-26.574l-.7,1.7a71.045,71.045,0,0,1,16-11.385,89.545,89.545,0,0,1,23.073-8.816,62.965,62.965,0,0,1,25.169-.639,86.812,86.812,0,0,1,23.613,8.089c6.682,3.386,13.238,7.473,18.6,12.751l-.7-1.7a52.965,52.965,0,0,1-6.9,31.773c-4.329,7.243-11.017,13.937-19.08,16.248a88.6,88.6,0,0,1-26,3.245c-4.158-.076-8.316-.284-12.465-.565-.25-.016-.5-.022-.753-.052.813.1-.319-.1-.395-.11l-.684-.137q-1.028-.21-2.051-.444a77.075,77.075,0,0,1-7.446-2.08,49.3,49.3,0,0,1-14.7-7.632,37.327,37.327,0,0,1-10.824-13.672,2.42,2.42,0,0,0-3.284-.861,2.455,2.455,0,0,0-.861,3.284c4.452,9.509,12.45,16.644,21.931,20.957a72.8,72.8,0,0,0,14.247,4.71A55.619,55.619,0,0,0,132.4,149.9c4.692.242,9.414.45,14.111.226a97.968,97.968,0,0,0,16.684-2.3,42.461,42.461,0,0,0,8.327-2.609,36.334,36.334,0,0,0,10.351-7.305,52.2,52.2,0,0,0,14.029-26.518,55.912,55.912,0,0,0,1.006-17.274c-.233-2.09-2.961-3.828-4.5-5.077q-2.853-2.314-5.911-4.363a94.631,94.631,0,0,0-31.068-13.6,68.844,68.844,0,0,0-18.183-1.866,75.032,75.032,0,0,0-18.038,3.052A94.641,94.641,0,0,0,89.624,86.824a67.578,67.578,0,0,0-5.3,4.306c-.955.869-1.922,1.613-2.065,2.988-.175,1.69-.206,3.41-.225,5.108A60.409,60.409,0,0,0,84.068,116.1a47.886,47.886,0,0,0,2.6,7.014,2.42,2.42,0,0,0,3.284.861A2.457,2.457,0,0,0,90.813,120.692Z"/>
<path class="c" d="M143.636,220.565q-41.394.3-82.788.519l-6.34.029c-1.908.008-4.083-.248-5.883.454-2.887,1.124-4.133,3.773-4.12,6.73q.007,2.028.023,4.057.081,11.676.232,23.354.368,31.124.91,62.246.243,13.923.544,27.844.12,5.295.263,10.59c.086,3.088,1.13,5.851,4.246,7.023,1.737.655,3.8.38,5.623.363,25.287-.227,50.581-.024,75.868.06,28.8.095,57.608-.168,86.412-.115,4.239.007,8.477.019,12.716.059,2.047.02,4.2.274,6.075-.747,2.7-1.474,3.307-4.1,3.385-6.932.22-7.935.382-15.872.536-23.809q.606-31.2,1-62.4.18-13.722.323-27.446.051-5.229.089-10.459c.009-1.329.026-2.659.022-3.989a6.6,6.6,0,0,0-4.746-6.651c-1.771-.486-3.883-.226-5.71-.234q-3.23-.013-6.458-.03-8.049-.039-16.1-.086-21.425-.123-42.849-.268-11.637-.078-23.273-.162c-3.09-.023-3.093,4.777,0,4.8q40.819.294,81.64.513,3.051.017,6.1.029c1.643.007,3.355-.121,4.992.02,1.818.157,1.6,1.921,1.592,3.308q-.01,2.031-.025,4.063-.086,11.637-.236,23.273-.361,30.375-.888,60.748-.238,13.678-.531,27.356-.119,5.37-.261,10.739c-.034,1.268.276,3.289-1.4,3.59a12.842,12.842,0,0,1-2.286-.016q-1.248-.014-2.5-.023c-24.925-.193-49.856-.013-74.782.069-28.262.093-56.525-.157-84.787-.118-4.427.006-8.854.016-13.28.053a22.757,22.757,0,0,1-4.366.019c-1.742-.349-1.349-2.644-1.385-3.973-.214-7.963-.376-15.928-.529-23.893q-.585-30.456-.968-60.917-.177-13.392-.318-26.786-.052-5.251-.092-10.5-.015-2-.024-4c-.008-1.583.005-2.966,1.952-2.99,23.193-.283,46.394-.246,69.589-.4q11.394-.078,22.787-.159C146.723,225.342,146.73,220.542,143.636,220.565Z"/>
</g>
</svg>